HIERARCHY
ROOT hip
{
  OFFSET 7.01287 93.5411 25.8338
  CHANNELS 6 Xposition Yposition Zposition Zrotation Xrotation Yrotation
  JOINT abdomen
  {
    OFFSET 0 7.2397 0
    CHANNELS 6 Xposition Yposition Zposition Zrotation Xrotation Yrotation
    JOINT chest
    {
      OFFSET 0 16.546 0
      CHANNELS 6 Xposition Yposition Zposition Zrotation Xrotation Yrotation
      JOINT neck
      {
        OFFSET 0 34.2149 0
        CHANNELS 6 Xposition Yposition Zposition Zrotation Xrotation Yrotation
        JOINT head
        {
          OFFSET 0 6.2923 0
          CHANNELS 6 Xposition Yposition Zposition Zrotation Xrotation Yrotation
          End Site
          {
            OFFSET 0 21.2161 0
          }
        }
      }
      JOINT lCollar
      {
        OFFSET 4.0639 26.6115 -1.1234
        CHANNELS 6 Xposition Yposition Zposition Zrotation Xrotation Yrotation
        JOINT lShldr
        {
          OFFSET 14.1772 0 0
          CHANNELS 6 Xposition Yposition Zposition Zrotation Xrotation Yrotation
          JOINT lForeArm
          {
            OFFSET 26.1234 0 0
            CHANNELS 6 Xposition Yposition Zposition Zrotation Xrotation Yrotation
            JOINT lHand
            {
              OFFSET 27.7188 0 0
              CHANNELS 6 Xposition Yposition Zposition Zrotation Xrotation Yrotation
              JOINT lThumb1
              {
                OFFSET 2.2979 -0.4685 1.8313
                CHANNELS 6 Xposition Yposition Zposition Zrotation Xrotation Yrotation
                JOINT lThumb2
                {
                  OFFSET 5.2953 0 0
                  CHANNELS 6 Xposition Yposition Zposition Zrotation Xrotation Yrotation
                  JOINT lThumb3
                  {
                    OFFSET 3.0181 0 0
                    CHANNELS 6 Xposition Yposition Zposition Zrotation Xrotation Yrotation
                    End Site
                    {
                      OFFSET 2.6294 0 0
                    }
                  }
                }
              }
              JOINT lIndex1
              {
                OFFSET 9.3793 0.2991 2.5924
                CHANNELS 6 Xposition Yposition Zposition Zrotation Xrotation Yrotation
                JOINT lIndex2
                {
                  OFFSET 4.3461 0 0
                  CHANNELS 6 Xposition Yposition Zposition Zrotation Xrotation Yrotation
                  JOINT lIndex3
                  {
                    OFFSET 2.1666 0 0
                    CHANNELS 6 Xposition Yposition Zposition Zrotation Xrotation Yrotation
                    End Site
                    {
                      OFFSET 2.2048 0 0
                    }
                  }
                }
              }
              JOINT lMid1
              {
                OFFSET 9.4769 0.8376 0.2947
                CHANNELS 6 Xposition Yposition Zposition Zrotation Xrotation Yrotation
                JOINT lMid2
                {
                  OFFSET 4.772 0 0
                  CHANNELS 6 Xposition Yposition Zposition Zrotation Xrotation Yrotation
                  JOINT lMid3
                  {
                    OFFSET 2.8722 0 0
                    CHANNELS 6 Xposition Yposition Zposition Zrotation Xrotation Yrotation
                    End Site
                    {
                      OFFSET 2.0959 0 0
                    }
                  }
                }
              }
              JOINT lRing1
              {
                OFFSET 8.6586 1.0176 -1.7016
                CHANNELS 6 Xposition Yposition Zposition Zrotation Xrotation Yrotation
                JOINT lRing2
                {
                  OFFSET 4.5461 0 0
                  CHANNELS 6 Xposition Yposition Zposition Zrotation Xrotation Yrotation
                  JOINT lRing3
                  {
                    OFFSET 2.506 0 0
                    CHANNELS 6 Xposition Yposition Zposition Zrotation Xrotation Yrotation
                    End Site
                    {
                      OFFSET 2.2023 0 0
                    }
                  }
                }
              }
              JOINT lPinky1
              {
                OFFSET 7.6901 0.6618 -3.9096
                CHANNELS 6 Xposition Yposition Zposition Zrotation Xrotation Yrotation
                JOINT lPinky2
                {
                  OFFSET 3.2119 0 0
                  CHANNELS 6 Xposition Yposition Zposition Zrotation Xrotation Yrotation
                  JOINT lPinky3
                  {
                    OFFSET 1.924 0 0
                    CHANNELS 6 Xposition Yposition Zposition Zrotation Xrotation Yrotation
                    End Site
                    {
                      OFFSET 1.7829 0 0
                    }
                  }
                }
              }
            }
          }
        }
      }
      JOINT rCollar
      {
        OFFSET -4.0677 26.6109 -1.1234
        CHANNELS 6 Xposition Yposition Zposition Zrotation Xrotation Yrotation
        JOINT rShldr
        {
          OFFSET -14.1772 0 0
          CHANNELS 6 Xposition Yposition Zposition Zrotation Xrotation Yrotation
          JOINT rForeArm
          {
            OFFSET -26.1234 0 0
            CHANNELS 6 Xposition Yposition Zposition Zrotation Xrotation Yrotation
            JOINT rHand
            {
              OFFSET -27.7188 0 0
              CHANNELS 6 Xposition Yposition Zposition Zrotation Xrotation Yrotation
              JOINT rThumb1
              {
                OFFSET -2.2979 -0.4684 1.8313
                CHANNELS 6 Xposition Yposition Zposition Zrotation Xrotation Yrotation
                JOINT rThumb2
                {
                  OFFSET -5.2953 0 0
                  CHANNELS 6 Xposition Yposition Zposition Zrotation Xrotation Yrotation
                  JOINT rThumb3
                  {
                    OFFSET -3.0181 0 0
                    CHANNELS 6 Xposition Yposition Zposition Zrotation Xrotation Yrotation
                    End Site
                    {
                      OFFSET -2.6294 0 0
                    }
                  }
                }
              }
              JOINT rIndex1
              {
                OFFSET -9.3793 0.2991 2.5924
                CHANNELS 6 Xposition Yposition Zposition Zrotation Xrotation Yrotation
                JOINT rIndex2
                {
                  OFFSET -4.3461 0 0
                  CHANNELS 6 Xposition Yposition Zposition Zrotation Xrotation Yrotation
                  JOINT rIndex3
                  {
                    OFFSET -2.1666 0 0
                    CHANNELS 6 Xposition Yposition Zposition Zrotation Xrotation Yrotation
                    End Site
                    {
                      OFFSET -2.2048 0 0
                    }
                  }
                }
              }
              JOINT rMid1
              {
                OFFSET -9.4769 0.8376 0.2947
                CHANNELS 6 Xposition Yposition Zposition Zrotation Xrotation Yrotation
                JOINT rMid2
                {
                  OFFSET -4.772 0 0
                  CHANNELS 6 Xposition Yposition Zposition Zrotation Xrotation Yrotation
                  JOINT rMid3
                  {
                    OFFSET -2.8722 0 0
                    CHANNELS 6 Xposition Yposition Zposition Zrotation Xrotation Yrotation
                    End Site
                    {
                      OFFSET -2.0959 0 0
                    }
                  }
                }
              }
              JOINT rRing1
              {
                OFFSET -8.6586 1.0176 -1.7016
                CHANNELS 6 Xposition Yposition Zposition Zrotation Xrotation Yrotation
                JOINT rRing2
                {
                  OFFSET -4.5461 0 0
                  CHANNELS 6 Xposition Yposition Zposition Zrotation Xrotation Yrotation
                  JOINT rRing3
                  {
                    OFFSET -2.506 0 0
                    CHANNELS 6 Xposition Yposition Zposition Zrotation Xrotation Yrotation
                    End Site
                    {
                      OFFSET -2.2023 0 0
                    }
                  }
                }
              }
              JOINT rPinky1
              {
                OFFSET -7.6901 0.6618 -3.9096
                CHANNELS 6 Xposition Yposition Zposition Zrotation Xrotation Yrotation
                JOINT rPinky2
                {
                  OFFSET -3.2119 0 0
                  CHANNELS 6 Xposition Yposition Zposition Zrotation Xrotation Yrotation
                  JOINT rPinky3
                  {
                    OFFSET -1.924 0 0
                    CHANNELS 6 Xposition Yposition Zposition Zrotation Xrotation Yrotation
                    End Site
                    {
                      OFFSET -1.7829 0 0
                    }
                  }
                }
              }
            }
          }
        }
      }
    }
  }
  JOINT lThigh
  {
    OFFSET 8.7379 -0.0029 0.0005
    CHANNELS 6 Xposition Yposition Zposition Zrotation Xrotation Yrotation
    JOINT lShin
    {
      OFFSET 0 -46.6676 0
      CHANNELS 6 Xposition Yposition Zposition Zrotation Xrotation Yrotation
      JOINT lFoot
      {
        OFFSET 0 -40.1476 0
        CHANNELS 6 Xposition Yposition Zposition Zrotation Xrotation Yrotation
        JOINT lToes
        {
          OFFSET 0 -8.8846 14.2294
          CHANNELS 6 Xposition Yposition Zposition Zrotation Xrotation Yrotation
          End Site
          {
            OFFSET 0 0 6.296
          }
        }
      }
    }
  }
  JOINT rThigh
  {
    OFFSET -8.7379 0.0029 -0.0005
    CHANNELS 6 Xposition Yposition Zposition Zrotation Xrotation Yrotation
    JOINT rShin
    {
      OFFSET 0 -46.6676 0
      CHANNELS 6 Xposition Yposition Zposition Zrotation Xrotation Yrotation
      JOINT rFoot
      {
        OFFSET 0 -40.1476 0
        CHANNELS 6 Xposition Yposition Zposition Zrotation Xrotation Yrotation
        JOINT rToes
        {
          OFFSET 0 -8.8846 14.2294
          CHANNELS 6 Xposition Yposition Zposition Zrotation Xrotation Yrotation
          End Site
          {
            OFFSET 0 0 6.296
          }
        }
      }
    }
  }
}
MOTION
Frames:	4
Frame Time:	0.0333333
0.837785 96.0039 2.12497 -3.07971 -0.118848 0.10701 0 7.2397 0 -1.32788 -2.36704 2.04739 -8.88178e-16 16.546 0 -2.96257 -2.92839 4.25262 0 34.2149 1.77636e-15 0.402744 34.5479 -0.283896 0 6.2923 0 1.02098 -6.11393 -0.421846 4.0639 26.6115 -1.1234 11.5003 -3.80116 -1.6707 14.1772 0 3.55271e-15 -76.1812 40.7271 4.55459 26.1234 -7.10543e-15 7.10543e-15 -0.434924 0.117883 -30.3322 27.7188 -7.10543e-15 3.55271e-15 9.83361 -36.6316 33.6258 2.2979 -0.4685 1.8313 51.5543 67.4429 -71.6042 5.2953 0 -1.77636e-15 -19.1238 -2.12346 6.81192 3.0181 0 -3.55271e-15 6.26637 -1.03691 5.30043 9.3793 0.2991 2.5924 -0.606503 -1.27402 -0.63041 4.3461 0 0 -5.08318 0.225472 1.15086 2.1666 0 0 -4.71 -0.0338267 0.562858 9.4769 0.8376 0.2947 -0.621789 -4.0705 -0.635069 4.772 0 0 -5.03291 0.0285854 1.40126 2.8722 0 0 1.44737 0.103883 1.09399 8.6586 1.0176 -1.7016 -0.563493 2.63369 -0.63092 4.5461 -7.10543e-15 8.88178e-16 -5.14452 -0.0361541 0.802521 2.506 0 8.88178e-16 4.188 0.0383288 0.399839 7.6901 0.6618 -3.9096 0.757647 -8.65507 3.40842 3.2119 0 1.77636e-15 -6.30975 0.29687 -2.01335 1.924 0 0 1.96928 0.0500469 0.897619 -4.0677 26.6109 -1.1234 -19.1224 -4.52056 -8.17789 -14.1772 0 3.55271e-15 114.719 -50.6495 101.439 -26.1234 -3.55271e-15 0 0.548017 1.52518 140.473 -27.7188 -3.55271e-15 0 7.76078 -30.7494 6.68913 -2.2979 -0.4684 1.8313 -52.5884 66.7177 72.38 -5.2953 1.42109e-14 1.42109e-14 21.5202 -2.80537 -6.95913 -3.0181 0 0 -7.33693 -1.31942 -5.01364 -9.3793 0.2991 2.5924 41.3175 -3.7298 -7.24012 -4.3461 0 -2.84217e-14 46.357 -3.79629 -9.4933 -2.1666 2.84217e-14 0 25.4156 -1.2307 -5.01053 -9.4769 0.8376 0.2947 40.9629 -6.5039 -7.27176 -4.772 0 0 45.6596 -4.78685 -11.5523 -2.8722 0 0 19.0118 -0.762519 -6.70123 -8.6586 1.0176 -1.7016 41.8096 0.147058 -7.22473 -4.5461 -1.42109e-14 0 47.0327 -2.88065 -6.61375 -2.506 -1.42109e-14 0 16.8051 -0.322573 -3.66932 -7.6901 0.6618 -3.9096 40.3677 -11.0858 -7.36283 -3.2119 -1.42109e-14 -2.84217e-14 44.2637 -6.10369 -14.9367 -1.924 0 0 17.9371 -0.968617 -8.15547 8.7379 -0.0029 0.0005 6.80602 -10.3047 7.74703 1.77636e-15 -46.6676 0 0.4718 22.5394 9.32464 0 -40.1476 -8.88178e-16 -3.42988 -11.0335 11.0565 -1.77636e-15 -8.8846 14.2294 0.0001 -9.93923e-17 -0 -8.7379 0.0029 -0.0005 -0.223368 -7.77403 -11.8691 -1.77636e-15 -46.6676 3.55271e-15 -1.82721 15.3225 -7.68636 1.77636e-15 -40.1476 0 4.88841 -6.69685 -12.9067 1.77636e-15 -8.8846 14.2294 4.96962e-17 9.93923e-17 9.54166e-15 
1.0312 95.9077 1.95799 -3.2266 -0.204247 -0.528359 0 7.2397 0 -1.25071 -2.32336 2.08507 0 16.546 0 -2.83561 -2.83928 4.32376 -3.55271e-15 34.2149 -1.77636e-15 0.482396 34.2653 -0.29027 -1.77636e-15 6.2923 -2.84217e-14 0.887758 -6.2319 -0.28533 4.0639 26.6115 -1.1234 11.2002 -3.76868 -1.66906 14.1772 0 -3.55271e-15 -75.89 41.2977 4.19511 26.1234 0 7.10543e-15 -0.430945 0.115576 -30.0261 27.7188 0 -3.55271e-15 9.77243 -36.3027 34.2951 2.2979 -0.4685 1.8313 51.4007 67.5181 -71.4151 5.2953 0 -5.32907e-15 -19.2839 -2.20596 6.87335 3.0181 0 -7.10543e-15 6.18273 -1.06449 5.33744 9.3793 0.2991 2.5924 -0.355925 -1.27689 -0.681687 4.3461 -7.10543e-15 1.77636e-15 -4.83423 0.23035 1.09463 2.1666 -7.10543e-15 1.77636e-15 -4.58552 -0.0315877 0.535328 9.4769 0.8376 0.2947 -0.373707 -4.07335 -0.686464 4.772 -7.10543e-15 0 -4.78721 0.0344502 1.333 2.8722 7.10543e-15 0 1.57032 0.102987 1.05994 8.6586 1.0176 -1.7016 -0.309408 2.63078 -0.682237 4.5461 0 0 -4.89257 -0.0327108 0.763308 2.506 0 0 4.31402 0.0368705 0.380213 7.6901 0.6618 -3.9096 1.00156 -8.65916 3.35665 3.2119 -7.10543e-15 -1.77636e-15 -6.07052 0.288274 -2.10265 1.924 0 -1.77636e-15 2.08899 0.0484877 0.853608 -4.0677 26.6109 -1.1234 -20.1147 -4.55327 -8.99434 -14.1772 -2.84217e-14 0 115.274 -48.2298 101.186 -26.1234 0 2.84217e-14 0.550749 1.52291 140.238 -27.7188 -5.32907e-15 -5.68434e-14 11.3844 -35.2041 8.11717 -2.2979 -0.4684 1.8313 -52.5995 66.7118 72.3939 -5.2953 -2.84217e-14 1.42109e-14 21.3255 -2.70391 -6.88679 -3.0181 0 0 -7.43854 -1.28632 -4.96815 -9.3793 0.2991 2.5924 41.281 -3.72515 -7.23414 -4.3461 1.42109e-14 -5.68434e-14 46.3236 -3.79074 -9.48797 -2.1666 0 -2.84217e-14 25.3988 -1.22907 -5.00714 -9.4769 0.8376 0.2947 40.9267 -6.49927 -7.26571 -4.772 0 0 45.6268 -4.78019 -11.5458 -2.8722 1.42109e-14 0 18.9952 -0.761014 -6.69686 -8.6586 1.0176 -1.7016 41.7727 0.151766 -7.21879 -4.5461 0 0 46.9987 -2.87674 -6.61007 -2.506 0 -2.84217e-14 16.788 -0.321788 -3.66676 -7.6901 0.6618 -3.9096 40.332 -11.0813 -7.35667 -3.2119 0 -2.84217e-14 44.2322 -6.09534 -14.9281 -1.924 -1.42109e-14 2.84217e-14 17.921 -0.966779 -8.14978 8.7379 -0.0029 0.0005 6.81086 -10.5842 7.98659 0 -46.6676 0 0.77313 23.3538 9.25222 0 -40.1476 0 -3.5676 -11.4411 11.2982 0 -8.8846 14.2294 0.0001 4.96962e-17 -0 -8.7379 0.0029 -0.0005 -0.134375 -8.0296 -11.2093 1.77636e-15 -46.6676 0 -1.80962 15.6812 -7.60772 0 -40.1476 0 4.58563 -6.7807 -12.6262 -1.77636e-15 -8.8846 14.2294 4.96962e-17 0 -0 
1.19725 95.7142 1.77526 -3.54085 -0.303663 -1.21363 0 7.2397 4.44089e-16 -1.15083 -2.33112 1.98051 1.77636e-15 16.546 -8.88178e-16 -2.69916 -2.84996 4.1082 0 34.2149 -1.77636e-15 0.683526 33.9631 -0.352923 3.55271e-15 6.2923 1.42109e-14 0.775504 -6.25474 -0.169368 4.0639 26.6115 -1.1234 10.8778 -3.7317 -1.68884 14.1772 2.84217e-14 0 -75.6397 41.8077 4.21931 26.1234 -2.13163e-14 0 -0.435583 0.118285 -30.3839 27.7188 -7.10543e-15 -3.55271e-15 10.235 -36.1291 35.9827 2.2979 -0.4685 1.8313 51.2555 67.5884 -71.2368 5.2953 0 8.88178e-15 -19.4337 -2.28336 6.93071 3.0181 0 -3.55271e-15 6.10443 -1.09037 5.37199 9.3793 0.2991 2.5924 -0.121403 -1.27977 -0.729668 4.3461 0 0 -4.60177 0.234685 1.0421 2.1666 0 0 -4.46926 -0.0295514 0.509613 9.4769 0.8376 0.2947 -0.141542 -4.07622 -0.734557 4.772 0 0 -4.55773 0.0396627 1.26923 2.8722 0 0 1.68512 0.102083 1.02815 8.6586 1.0176 -1.7016 -0.0716203 2.62785 -0.730254 4.5461 0 0 -4.65728 -0.0296514 0.726679 2.506 0 -8.88178e-16 4.4317 0.0354687 0.361886 7.6901 0.6618 -3.9096 1.22985 -8.66318 3.3082 3.2119 0 0 -5.84718 0.279911 -2.186 1.924 -7.10543e-15 1.77636e-15 2.2008 0.0469501 0.812509 -4.0677 26.6109 -1.1234 -21.1224 -4.61118 -9.97785 -14.1772 1.42109e-14 0 114.508 -45.9338 100.098 -26.1234 3.55271e-15 2.84217e-14 0.572013 1.50462 138.371 -27.7188 1.77636e-15 0 13.5031 -37.9526 10.3396 -2.2979 -0.4684 1.8313 -52.6998 66.6582 72.5192 -5.2953 0 0 21.0417 -2.5565 -6.78078 -3.0181 0 0 -7.58662 -1.23829 -4.90177 -9.3793 0.2991 2.5924 40.7753 -3.66147 -7.15064 -4.3461 1.42109e-14 -1.42109e-14 45.677 -3.68351 -9.38419 -2.1666 -1.42109e-14 -2.84217e-14 25.0732 -1.19796 -4.94112 -9.4769 0.8376 0.2947 40.4251 -6.43611 -7.18147 -4.772 -1.42109e-14 0 44.992 -4.65168 -11.4182 -2.8722 -1.42109e-14 2.84217e-14 18.6735 -0.731984 -6.61178 -8.6586 1.0176 -1.7016 41.2614 0.216169 -7.13602 -4.5461 0 2.84217e-14 46.3403 -2.80095 -6.53847 -2.506 1.42109e-14 2.84217e-14 16.4572 -0.30688 -3.61683 -7.6901 0.6618 -3.9096 39.8374 -11.019 -7.27072 -3.2119 0 1.42109e-14 43.6211 -5.93428 -14.76 -1.924 1.42109e-14 0 17.6085 -0.931348 -8.03922 8.7379 -0.0029 0.0005 7.00588 -11.181 8.24638 0 -46.6676 0 1.2035 24.8867 9.16533 0 -40.1476 0 -3.86058 -12.2059 11.5121 3.55271e-15 -8.8846 14.2294 0.0001 -4.96962e-17 3.18055e-15 -8.7379 0.0029 -0.0005 0.136785 -8.49627 -10.8049 0 -46.6676 3.55271e-15 -1.85933 16.4729 -7.48831 0 -40.1476 0 4.03321 -7.03789 -12.1763 3.55271e-15 -8.8846 14.2294 1.10348e-32 -1.98785e-16 3.18055e-15 
1.28079 95.6624 1.61775 -3.57588 -0.368672 -1.80447 0 7.2397 0 -1.1351 -2.26615 2.05385 -8.88178e-16 16.546 -8.88178e-16 -2.66054 -2.72072 4.25518 0 34.2149 0 0.964558 33.5847 -0.442046 1.77636e-15 6.2923 -1.42109e-14 0.833194 -6.31088 -0.0167488 4.0639 26.6115 -1.1234 10.4903 -3.6947 -1.64107 14.1772 2.84217e-14 0 -75.1359 42.5339 3.55709 26.1234 7.10543e-15 0 -0.430691 0.115436 -30.0075 27.7188 0 -3.55271e-15 10.0829 -35.9007 36.6037 2.2979 -0.4685 1.8313 51.1188 67.6541 -71.0689 5.2953 0 -1.77636e-15 -19.5735 -2.35577 6.98408 3.0181 0 -7.10543e-15 6.03132 -1.11456 5.40425 9.3793 0.2991 2.5924 0.0965064 -1.28264 -0.774239 4.3461 7.10543e-15 1.77636e-15 -4.38628 0.238513 0.993394 2.1666 -7.10543e-15 -8.88178e-16 -4.36153 -0.0277117 0.48578 9.4769 0.8376 0.2947 0.074174 -4.07907 -0.779229 4.772 -1.42109e-14 0 -4.34507 0.0442631 1.21011 2.8722 0 0 1.79153 0.101189 0.99868 8.6586 1.0176 -1.7016 0.149323 2.62495 -0.774859 4.5461 0 -1.77636e-15 -4.43918 -0.02695 0.69272 2.506 0 8.88178e-16 4.54074 0.0341351 0.344906 7.6901 0.6618 -3.9096 1.44201 -8.66709 3.26321 3.2119 0 0 -5.6402 0.271872 -2.26322 1.924 7.10543e-15 0 2.30439 0.0454521 0.77443 -4.0677 26.6109 -1.1234 -22.051 -4.60665 -10.7519 -14.1772 1.42109e-14 7.10543e-15 113.827 -43.5488 97.8494 -26.1234 -8.88178e-16 0 0.575174 1.50182 138.091 -27.7188 1.77636e-15 0 15.2678 -40.0724 11.6164 -2.2979 -0.4684 1.8313 -52.8903 66.5553 72.7576 -5.2953 1.42109e-14 0 20.6681 -2.36348 -6.6403 -3.0181 -1.42109e-14 -2.84217e-14 -7.78138 -1.17541 -4.8143 -9.3793 0.2991 2.5924 39.0995 -3.45578 -6.87015 -4.3461 1.42109e-14 1.42109e-14 43.5248 -3.33525 -9.03039 -2.1666 -1.42109e-14 0 23.9895 -1.09719 -4.72023 -9.4769 0.8376 0.2947 38.7631 -6.23211 -6.89856 -4.772 0 0 42.8785 -4.23437 -10.9838 -2.8722 1.42109e-14 1.42109e-14 17.6028 -0.638903 -6.32757 -8.6586 1.0176 -1.7016 39.5666 0.424177 -6.85779 -4.5461 1.42109e-14 0 44.1491 -2.55476 -6.29413 -2.506 0 0 15.3568 -0.259383 -3.45011 -7.6901 0.6618 -3.9096 38.1988 -10.8178 -6.98228 -3.2119 0 -1.42109e-14 41.5859 -5.41143 -14.1886 -1.924 -2.84217e-14 -1.42109e-14 16.5682 -0.817871 -7.67001 8.7379 -0.0029 0.0005 6.9708 -11.2615 8.4601 0 -46.6676 3.55271e-15 1.42895 25.2229 9.10604 -1.77636e-15 -40.1476 2.22045e-15 -3.97606 -12.3437 11.7525 0 -8.8846 14.2294 0.0001 0 -0 -8.7379 0.0029 -0.0005 0.102665 -8.73697 -10.6251 1.77636e-15 -46.6676 0 -1.84548 16.7909 -7.42474 -1.77636e-15 -40.1476 1.77636e-15 4.04477 -6.98113 -11.5798 -1.77636e-15 -8.8846 14.2294 -7.45443e-17 -9.93923e-17 -0 
